<svg width="315" height="266" viewBox="0 0 315 266" fill="none" xmlns="http://www.w3.org/2000/svg">
<path d="M8.54106 23H2.62628V5.54545H8.66038C10.3933 5.54545 11.882 5.89489 13.1263 6.59375C14.3763 7.28693 15.3365 8.28409 16.007 9.58523C16.6774 10.8864 17.0126 12.4432 17.0126 14.2557C17.0126 16.0739 16.6746 17.6364 15.9984 18.9432C15.328 20.25 14.3592 21.2528 13.0922 21.9517C11.8308 22.6506 10.3138 23 8.54106 23ZM5.78822 20.2642H8.38765C9.60356 20.2642 10.6178 20.0426 11.4303 19.5994C12.2428 19.1506 12.8536 18.483 13.2626 17.5966C13.6717 16.7045 13.8763 15.5909 13.8763 14.2557C13.8763 12.9205 13.6717 11.8125 13.2626 10.9318C12.8536 10.0455 12.2484 9.38352 11.4473 8.94602C10.6519 8.50284 9.66322 8.28125 8.4814 8.28125H5.78822V20.2642ZM24.3788 5.54545V23H21.2169V5.54545H24.3788ZM38.4886 10.3438C38.4091 9.59943 38.0739 9.01989 37.483 8.60511C36.8977 8.19034 36.1364 7.98295 35.1989 7.98295C34.5398 7.98295 33.9744 8.08239 33.5028 8.28125C33.0313 8.48011 32.6705 8.75 32.4205 9.09091C32.1705 9.43182 32.0426 9.82102 32.0369 10.2585C32.0369 10.6222 32.1193 10.9375 32.2841 11.2045C32.4546 11.4716 32.6847 11.6989 32.9744 11.8864C33.2642 12.0682 33.5852 12.2216 33.9375 12.3466C34.2898 12.4716 34.6449 12.5767 35.0028 12.6619L36.6392 13.071C37.2983 13.2244 37.9318 13.4318 38.5398 13.6932C39.1534 13.9545 39.7017 14.2841 40.1847 14.6818C40.6733 15.0795 41.0597 15.5597 41.3438 16.1222C41.6278 16.6847 41.7699 17.3437 41.7699 18.0994C41.7699 19.1222 41.5085 20.0227 40.9858 20.8011C40.4631 21.5739 39.7074 22.179 38.7188 22.6165C37.7358 23.0483 36.5455 23.2642 35.1477 23.2642C33.7898 23.2642 32.6108 23.054 31.6108 22.6335C30.6165 22.2131 29.8381 21.5994 29.2756 20.7926C28.7188 19.9858 28.4176 19.0028 28.3722 17.8438H31.483C31.5284 18.4517 31.7159 18.9574 32.0455 19.3608C32.375 19.7642 32.804 20.0653 33.3324 20.2642C33.8665 20.4631 34.4631 20.5625 35.1222 20.5625C35.8097 20.5625 36.4119 20.4602 36.929 20.2557C37.4517 20.0455 37.8608 19.7557 38.1563 19.3864C38.4517 19.0114 38.6023 18.5739 38.608 18.0739C38.6023 17.6193 38.4688 17.2443 38.2074 16.9489C37.946 16.6477 37.5796 16.3977 37.108 16.1989C36.6421 15.9943 36.0966 15.8125 35.4716 15.6534L33.4858 15.142C32.0483 14.7727 30.9119 14.2131 30.0767 13.4631C29.2472 12.7074 28.8324 11.7045 28.8324 10.4545C28.8324 9.42614 29.1108 8.52557 29.6676 7.75284C30.2301 6.98011 30.9943 6.38068 31.9602 5.95454C32.9261 5.52273 34.0199 5.30682 35.2415 5.30682C36.4801 5.30682 37.5653 5.52273 38.4972 5.95454C39.4347 6.38068 40.1705 6.97443 40.7046 7.73579C41.2386 8.49148 41.5142 9.3608 41.5313 10.3438H38.4886ZM60.7291 11.4347H57.5416C57.4507 10.9119 57.2831 10.4489 57.0388 10.0455C56.7945 9.63636 56.4905 9.28977 56.1269 9.00568C55.7632 8.72159 55.3484 8.50852 54.8825 8.36648C54.4223 8.21875 53.9251 8.14489 53.3911 8.14489C52.4422 8.14489 51.6013 8.38352 50.8683 8.86079C50.1354 9.33239 49.5615 10.0256 49.1467 10.9403C48.732 11.8494 48.5246 12.9602 48.5246 14.2727C48.5246 15.608 48.732 16.733 49.1467 17.6477C49.5672 18.5568 50.1411 19.2443 50.8683 19.7102C51.6013 20.1705 52.4394 20.4006 53.3825 20.4006C53.9053 20.4006 54.3939 20.3324 54.8484 20.196C55.3087 20.054 55.7206 19.8466 56.0842 19.5739C56.4536 19.3011 56.7632 18.9659 57.0132 18.5682C57.2689 18.1705 57.445 17.7159 57.5416 17.2045L60.7291 17.2216C60.6098 18.0511 60.3513 18.8295 59.9536 19.5568C59.5615 20.2841 59.0473 20.9261 58.4109 21.483C57.7746 22.0341 57.0303 22.4659 56.178 22.7784C55.3257 23.0852 54.3797 23.2386 53.3399 23.2386C51.8058 23.2386 50.4365 22.8835 49.232 22.1733C48.0274 21.4631 47.0786 20.4375 46.3854 19.0966C45.6922 17.7557 45.3456 16.1477 45.3456 14.2727C45.3456 12.392 45.695 10.7841 46.3939 9.44886C47.0928 8.10795 48.0445 7.08239 49.249 6.37216C50.4536 5.66193 51.8172 5.30682 53.3399 5.30682C54.3115 5.30682 55.2149 5.44318 56.0501 5.71591C56.8854 5.98864 57.6297 6.3892 58.2831 6.91761C58.9365 7.44034 59.4734 8.08239 59.8939 8.84375C60.32 9.59943 60.5984 10.4631 60.7291 11.4347ZM80.4213 14.2727C80.4213 16.1534 80.069 17.7642 79.3645 19.1051C78.6656 20.4403 77.7111 21.4631 76.5009 22.1733C75.2963 22.8835 73.9298 23.2386 72.4014 23.2386C70.873 23.2386 69.5037 22.8835 68.2935 22.1733C67.0889 21.4574 66.1344 20.4318 65.4298 19.0966C64.731 17.7557 64.3815 16.1477 64.3815 14.2727C64.3815 12.392 64.731 10.7841 65.4298 9.44886C66.1344 8.10795 67.0889 7.08239 68.2935 6.37216C69.5037 5.66193 70.873 5.30682 72.4014 5.30682C73.9298 5.30682 75.2963 5.66193 76.5009 6.37216C77.7111 7.08239 78.6656 8.10795 79.3645 9.44886C80.069 10.7841 80.4213 12.392 80.4213 14.2727ZM77.2423 14.2727C77.2423 12.9489 77.0349 11.8324 76.6202 10.9233C76.2111 10.0085 75.6429 9.31818 74.9156 8.85227C74.1884 8.38068 73.3503 8.14489 72.4014 8.14489C71.4526 8.14489 70.6145 8.38068 69.8872 8.85227C69.1599 9.31818 68.5889 10.0085 68.1742 10.9233C67.7651 11.8324 67.5605 12.9489 67.5605 14.2727C67.5605 15.5966 67.7651 16.7159 68.1742 17.6307C68.5889 18.5398 69.1599 19.2301 69.8872 19.7017C70.6145 20.1676 71.4526 20.4006 72.4014 20.4006C73.3503 20.4006 74.1884 20.1676 74.9156 19.7017C75.6429 19.2301 76.2111 18.5398 76.6202 17.6307C77.0349 16.7159 77.2423 15.5966 77.2423 14.2727ZM86.0084 5.54545L90.551 19.2841H90.73L95.2641 5.54545H98.7413L92.5879 23H88.6845L82.5396 5.54545H86.0084ZM102.24 23V5.54545H113.593V8.19602H105.402V12.9347H113.005V15.5852H105.402V20.3494H113.661V23H102.24ZM118.018 23V5.54545H124.564C125.905 5.54545 127.03 5.77841 127.939 6.24432C128.854 6.71023 129.544 7.36364 130.01 8.20454C130.482 9.03977 130.717 10.0142 130.717 11.1278C130.717 12.2472 130.479 13.2187 130.001 14.0426C129.53 14.8608 128.834 15.4943 127.913 15.9432C126.993 16.3864 125.862 16.608 124.521 16.608H119.859V13.983H124.095C124.879 13.983 125.521 13.875 126.021 13.6591C126.521 13.4375 126.891 13.1165 127.129 12.696C127.374 12.2699 127.496 11.7472 127.496 11.1278C127.496 10.5085 127.374 9.98011 127.129 9.54261C126.885 9.09943 126.513 8.7642 126.013 8.53693C125.513 8.30398 124.868 8.1875 124.078 8.1875H121.18V23H118.018ZM127.036 15.0909L131.357 23H127.828L123.584 15.0909H127.036ZM147.896 23H141.981V5.54545H148.015C149.748 5.54545 151.237 5.89489 152.481 6.59375C153.731 7.28693 154.691 8.28409 155.362 9.58523C156.032 10.8864 156.367 12.4432 156.367 14.2557C156.367 16.0739 156.029 17.6364 155.353 18.9432C154.683 20.25 153.714 21.2528 152.447 21.9517C151.186 22.6506 149.668 23 147.896 23ZM145.143 20.2642H147.742C148.958 20.2642 149.972 20.0426 150.785 19.5994C151.597 19.1506 152.208 18.483 152.617 17.5966C153.026 16.7045 153.231 15.5909 153.231 14.2557C153.231 12.9205 153.026 11.8125 152.617 10.9318C152.208 10.0455 151.603 9.38352 150.802 8.94602C150.007 8.50284 149.018 8.28125 147.836 8.28125H145.143V20.2642ZM160.572 23V5.54545H171.924V8.19602H163.734V12.9347H171.336V15.5852H163.734V20.3494H171.992V23H160.572ZM185.836 10.3438C185.756 9.59943 185.421 9.01989 184.83 8.60511C184.245 8.19034 183.483 7.98295 182.546 7.98295C181.887 7.98295 181.321 8.08239 180.85 8.28125C180.378 8.48011 180.017 8.75 179.767 9.09091C179.517 9.43182 179.389 9.82102 179.384 10.2585C179.384 10.6222 179.466 10.9375 179.631 11.2045C179.801 11.4716 180.032 11.6989 180.321 11.8864C180.611 12.0682 180.932 12.2216 181.284 12.3466C181.637 12.4716 181.992 12.5767 182.35 12.6619L183.986 13.071C184.645 13.2244 185.279 13.4318 185.887 13.6932C186.5 13.9545 187.049 14.2841 187.532 14.6818C188.02 15.0795 188.407 15.5597 188.691 16.1222C188.975 16.6847 189.117 17.3437 189.117 18.0994C189.117 19.1222 188.855 20.0227 188.333 20.8011C187.81 21.5739 187.054 22.179 186.066 22.6165C185.083 23.0483 183.892 23.2642 182.495 23.2642C181.137 23.2642 179.958 23.054 178.958 22.6335C177.963 22.2131 177.185 21.5994 176.622 20.7926C176.066 19.9858 175.764 19.0028 175.719 17.8438H178.83C178.875 18.4517 179.063 18.9574 179.392 19.3608C179.722 19.7642 180.151 20.0653 180.679 20.2642C181.213 20.4631 181.81 20.5625 182.469 20.5625C183.157 20.5625 183.759 20.4602 184.276 20.2557C184.799 20.0455 185.208 19.7557 185.503 19.3864C185.799 19.0114 185.949 18.5739 185.955 18.0739C185.949 17.6193 185.816 17.2443 185.554 16.9489C185.293 16.6477 184.926 16.3977 184.455 16.1989C183.989 15.9943 183.443 15.8125 182.818 15.6534L180.833 15.142C179.395 14.7727 178.259 14.2131 177.424 13.4631C176.594 12.7074 176.179 11.7045 176.179 10.4545C176.179 9.42614 176.458 8.52557 177.014 7.75284C177.577 6.98011 178.341 6.38068 179.307 5.95454C180.273 5.52273 181.367 5.30682 182.588 5.30682C183.827 5.30682 184.912 5.52273 185.844 5.95454C186.782 6.38068 187.517 6.97443 188.051 7.73579C188.586 8.49148 188.861 9.3608 188.878 10.3438H185.836ZM192.369 8.19602V5.54545H206.295V8.19602H200.9V23H197.763V8.19602H192.369ZM213.341 5.54545V23H210.179V5.54545H213.341ZM232.309 5.54545V23H229.497L221.272 11.1108H221.127V23H217.965V5.54545H220.795L229.011 17.4432H229.164V5.54545H232.309ZM239.196 23H235.821L241.966 5.54545H245.869L252.023 23H248.648L243.986 9.125H243.849L239.196 23ZM239.307 16.1562H248.511V18.696H239.307V16.1562ZM252.645 8.19602V5.54545H266.571V8.19602H261.176V23H258.04V8.19602H252.645ZM273.618 5.54545V23H270.456V5.54545H273.618ZM293.839 14.2727C293.839 16.1534 293.486 17.7642 292.782 19.1051C292.083 20.4403 291.128 21.4631 289.918 22.1733C288.714 22.8835 287.347 23.2386 285.819 23.2386C284.29 23.2386 282.921 22.8835 281.711 22.1733C280.506 21.4574 279.552 20.4318 278.847 19.0966C278.148 17.7557 277.799 16.1477 277.799 14.2727C277.799 12.392 278.148 10.7841 278.847 9.44886C279.552 8.10795 280.506 7.08239 281.711 6.37216C282.921 5.66193 284.29 5.30682 285.819 5.30682C287.347 5.30682 288.714 5.66193 289.918 6.37216C291.128 7.08239 292.083 8.10795 292.782 9.44886C293.486 10.7841 293.839 12.392 293.839 14.2727ZM290.66 14.2727C290.66 12.9489 290.452 11.8324 290.037 10.9233C289.628 10.0085 289.06 9.31818 288.333 8.85227C287.606 8.38068 286.767 8.14489 285.819 8.14489C284.87 8.14489 284.032 8.38068 283.304 8.85227C282.577 9.31818 282.006 10.0085 281.591 10.9233C281.182 11.8324 280.978 12.9489 280.978 14.2727C280.978 15.5966 281.182 16.7159 281.591 17.6307C282.006 18.5398 282.577 19.2301 283.304 19.7017C284.032 20.1676 284.87 20.4006 285.819 20.4006C286.767 20.4006 287.606 20.1676 288.333 19.7017C289.06 19.2301 289.628 18.5398 290.037 17.6307C290.452 16.7159 290.66 15.5966 290.66 14.2727ZM312.372 5.54545V23H309.559L301.335 11.1108H301.19V23H298.028V5.54545H300.857L309.073 17.4432H309.227V5.54545H312.372Z" fill="white"/>
<path d="M2.53894 77V63.9091H7.11564C8.02757 63.9091 8.77971 64.0668 9.37203 64.3821C9.96436 64.6932 10.4054 65.1129 10.6952 65.6413C10.985 66.1655 11.1298 66.7472 11.1298 67.3864C11.1298 67.9489 11.0297 68.4134 10.8294 68.7798C10.6334 69.1463 10.3735 69.4361 10.0496 69.6491C9.72999 69.8622 9.38269 70.0199 9.00769 70.1222V70.25C9.40826 70.2756 9.81096 70.4162 10.2158 70.6719C10.6206 70.9276 10.9594 71.294 11.2321 71.7713C11.5048 72.2486 11.6412 72.8324 11.6412 73.5227C11.6412 74.179 11.4921 74.7692 11.1938 75.2933C10.8955 75.8175 10.4246 76.233 9.78113 76.5398C9.13766 76.8466 8.3003 77 7.26905 77H2.53894ZM4.12417 75.5938H7.26905C8.30456 75.5938 9.03965 75.3935 9.47431 74.9929C9.91323 74.5881 10.1327 74.098 10.1327 73.5227C10.1327 73.0795 10.0198 72.6705 9.79391 72.2955C9.56806 71.9162 9.24632 71.6136 8.82871 71.3878C8.4111 71.1577 7.91678 71.0426 7.34576 71.0426H4.12417V75.5938ZM4.12417 69.6619H7.06451C7.54178 69.6619 7.97218 69.5682 8.3557 69.3807C8.74348 69.1932 9.0503 68.929 9.27615 68.5881C9.50627 68.2472 9.62132 67.8466 9.62132 67.3864C9.62132 66.8111 9.42104 66.3232 9.02047 65.9226C8.6199 65.5178 7.98496 65.3153 7.11564 65.3153H4.12417V69.6619ZM17.8306 77.2301C17.2085 77.2301 16.6438 77.1129 16.1367 76.8786C15.6296 76.6399 15.2269 76.2969 14.9286 75.8494C14.6303 75.3977 14.4812 74.8523 14.4812 74.2131C14.4812 73.6506 14.592 73.1946 14.8136 72.8452C15.0352 72.4915 15.3313 72.2145 15.7021 72.0142C16.0728 71.8139 16.4819 71.6648 16.9293 71.5668C17.3811 71.4645 17.8349 71.3835 18.2909 71.3239C18.8874 71.2472 19.3711 71.1896 19.7418 71.1513C20.1168 71.1087 20.3896 71.0384 20.56 70.9403C20.7347 70.8423 20.8221 70.6719 20.8221 70.429V70.3778C20.8221 69.7472 20.6495 69.2571 20.3043 68.9077C19.9634 68.5582 19.4457 68.3835 18.7511 68.3835C18.0309 68.3835 17.4663 68.5412 17.0572 68.8565C16.6481 69.1719 16.3605 69.5085 16.1943 69.8665L14.7624 69.3551C15.0181 68.7585 15.359 68.294 15.7852 67.9616C16.2156 67.625 16.6843 67.3906 17.1914 67.2585C17.7028 67.1222 18.2056 67.054 18.6999 67.054C19.0153 67.054 19.3775 67.0923 19.7866 67.169C20.1999 67.2415 20.5984 67.3928 20.9819 67.6229C21.3697 67.853 21.6914 68.2003 21.9471 68.6648C22.2028 69.1293 22.3306 69.7514 22.3306 70.5312V77H20.8221V75.6705H20.7454C20.6431 75.8835 20.4727 76.1115 20.234 76.3544C19.9954 76.5973 19.6779 76.804 19.2816 76.9744C18.8853 77.1449 18.4017 77.2301 17.8306 77.2301ZM18.0607 75.875C18.6573 75.875 19.1602 75.7578 19.5693 75.5234C19.9826 75.2891 20.2937 74.9865 20.5025 74.6158C20.7156 74.245 20.8221 73.8551 20.8221 73.446V72.0653C20.7582 72.142 20.6176 72.2124 20.4002 72.2763C20.1872 72.3359 19.94 72.3892 19.6588 72.4361C19.3818 72.4787 19.1112 72.517 18.847 72.5511C18.587 72.581 18.3761 72.6065 18.2142 72.6278C17.8221 72.679 17.4556 72.7621 17.1147 72.8771C16.7781 72.9879 16.5053 73.1562 16.2965 73.3821C16.092 73.6037 15.9897 73.9062 15.9897 74.2898C15.9897 74.8139 16.1836 75.2102 16.5714 75.4787C16.9634 75.7429 17.4599 75.875 18.0607 75.875ZM27.4925 63.9091V77H25.984V63.9091H27.4925ZM31.1555 77V67.1818H32.664V77H31.1555ZM31.9225 65.5455C31.6285 65.5455 31.3749 65.4453 31.1619 65.245C30.9531 65.0447 30.8487 64.804 30.8487 64.5227C30.8487 64.2415 30.9531 64.0007 31.1619 63.8004C31.3749 63.6001 31.6285 63.5 31.9225 63.5C32.2166 63.5 32.468 63.6001 32.6768 63.8004C32.8899 64.0007 32.9964 64.2415 32.9964 64.5227C32.9964 64.804 32.8899 65.0447 32.6768 65.245C32.468 65.4453 32.2166 65.5455 31.9225 65.5455Z" fill="white"/>
<path d="M2.51902 114V100.909H4.10425V107.403H4.25766L10.1383 100.909H12.2094L6.7122 106.815L12.2094 114H10.2917L5.74061 107.915L4.10425 109.756V114H2.51902ZM17.8459 114.23C17.2237 114.23 16.6591 114.113 16.152 113.879C15.6449 113.64 15.2422 113.297 14.9439 112.849C14.6456 112.398 14.4964 111.852 14.4964 111.213C14.4964 110.651 14.6072 110.195 14.8288 109.845C15.0504 109.491 15.3466 109.214 15.7173 109.014C16.0881 108.814 16.4971 108.665 16.9446 108.567C17.3963 108.464 17.8501 108.384 18.3061 108.324C18.9027 108.247 19.3863 108.19 19.7571 108.151C20.1321 108.109 20.4048 108.038 20.5753 107.94C20.75 107.842 20.8373 107.672 20.8373 107.429V107.378C20.8373 106.747 20.6648 106.257 20.3196 105.908C19.9787 105.558 19.4609 105.384 18.7663 105.384C18.0461 105.384 17.4815 105.541 17.0724 105.857C16.6633 106.172 16.3757 106.509 16.2095 106.866L14.7777 106.355C15.0334 105.759 15.3743 105.294 15.8004 104.962C16.2308 104.625 16.6996 104.391 17.2067 104.259C17.718 104.122 18.2209 104.054 18.7152 104.054C19.0305 104.054 19.3927 104.092 19.8018 104.169C20.2152 104.241 20.6136 104.393 20.9971 104.623C21.3849 104.853 21.7067 105.2 21.9623 105.665C22.218 106.129 22.3459 106.751 22.3459 107.531V114H20.8373V112.67H20.7606C20.6584 112.884 20.4879 113.112 20.2493 113.354C20.0106 113.597 19.6932 113.804 19.2969 113.974C18.9006 114.145 18.4169 114.23 17.8459 114.23ZM18.076 112.875C18.6726 112.875 19.1754 112.758 19.5845 112.523C19.9979 112.289 20.3089 111.987 20.5177 111.616C20.7308 111.245 20.8373 110.855 20.8373 110.446V109.065C20.7734 109.142 20.6328 109.212 20.4155 109.276C20.2024 109.336 19.9552 109.389 19.674 109.436C19.397 109.479 19.1264 109.517 18.8622 109.551C18.6023 109.581 18.3913 109.607 18.2294 109.628C17.8373 109.679 17.4709 109.762 17.13 109.877C16.7933 109.988 16.5206 110.156 16.3118 110.382C16.1072 110.604 16.005 110.906 16.005 111.29C16.005 111.814 16.1988 112.21 16.5866 112.479C16.9787 112.743 17.4751 112.875 18.076 112.875ZM25.9992 114V104.182H27.4566V105.665H27.5589C27.7379 105.179 28.0617 104.785 28.5305 104.482C28.9992 104.18 29.5276 104.028 30.1157 104.028C30.2265 104.028 30.365 104.031 30.5312 104.035C30.6974 104.039 30.8231 104.045 30.9083 104.054V105.588C30.8572 105.575 30.74 105.556 30.5568 105.531C30.3778 105.501 30.1882 105.486 29.9879 105.486C29.5106 105.486 29.0845 105.586 28.7095 105.786C28.3387 105.982 28.0447 106.255 27.8274 106.604C27.6143 106.95 27.5078 107.344 27.5078 107.787V114H25.9992ZM33.5965 114V104.182H35.105V114H33.5965ZM34.3636 102.545C34.0695 102.545 33.816 102.445 33.6029 102.245C33.3941 102.045 33.2897 101.804 33.2897 101.523C33.2897 101.241 33.3941 101.001 33.6029 100.8C33.816 100.6 34.0695 100.5 34.3636 100.5C34.6576 100.5 34.909 100.6 35.1178 100.8C35.3309 101.001 35.4374 101.241 35.4374 101.523C35.4374 101.804 35.3309 102.045 35.1178 102.245C34.909 102.445 34.6576 102.545 34.3636 102.545ZM38.768 114V104.182H40.2254V105.716H40.3532C40.5578 105.192 40.888 104.785 41.344 104.495C41.7999 104.201 42.3475 104.054 42.9867 104.054C43.6345 104.054 44.1735 104.201 44.6039 104.495C45.0386 104.785 45.3774 105.192 45.6203 105.716H45.7225C45.974 105.209 46.3511 104.806 46.8539 104.508C47.3568 104.205 47.9598 104.054 48.6629 104.054C49.5407 104.054 50.2588 104.329 50.817 104.879C51.3752 105.424 51.6544 106.274 51.6544 107.429V114H50.1458V107.429C50.1458 106.705 49.9477 106.187 49.5514 105.876C49.1551 105.565 48.6884 105.409 48.1515 105.409C47.4612 105.409 46.9264 105.618 46.5471 106.036C46.1678 106.449 45.9782 106.973 45.9782 107.608V114H44.4441V107.276C44.4441 106.717 44.263 106.268 43.9008 105.927C43.5386 105.582 43.072 105.409 42.5009 105.409C42.1089 105.409 41.7424 105.513 41.4015 105.722C41.0649 105.931 40.7921 106.221 40.5833 106.592C40.3788 106.958 40.2765 107.382 40.2765 107.864V114H38.768ZM61.5 109.986V104.182H63.0085V114H61.5V112.338H61.3977C61.1676 112.837 60.8097 113.261 60.3239 113.61C59.8381 113.955 59.2245 114.128 58.483 114.128C57.8693 114.128 57.3239 113.994 56.8466 113.725C56.3693 113.452 55.9943 113.043 55.7216 112.498C55.4489 111.948 55.3125 111.256 55.3125 110.42V104.182H56.821V110.318C56.821 111.034 57.0213 111.605 57.4219 112.031C57.8267 112.457 58.3424 112.67 58.9688 112.67C59.3438 112.67 59.7252 112.575 60.1129 112.383C60.505 112.191 60.8331 111.897 61.0973 111.501C61.3658 111.104 61.5 110.599 61.5 109.986ZM68.18 108.094V114H66.6715V104.182H68.1289V105.716H68.2567C68.4868 105.217 68.8363 104.817 69.305 104.514C69.7738 104.207 70.3789 104.054 71.1204 104.054C71.7851 104.054 72.3668 104.19 72.8654 104.463C73.364 104.732 73.7518 105.141 74.0288 105.69C74.3057 106.236 74.4442 106.926 74.4442 107.761V114H72.9357V107.864C72.9357 107.092 72.7354 106.491 72.3349 106.061C71.9343 105.626 71.3846 105.409 70.6857 105.409C70.2042 105.409 69.7738 105.513 69.3945 105.722C69.0195 105.931 68.7234 106.236 68.506 106.636C68.2887 107.037 68.18 107.523 68.18 108.094ZM89.2792 100.909H90.8644V110.267C90.8644 111.102 90.711 111.812 90.4042 112.396C90.0974 112.979 89.6649 113.423 89.1066 113.725C88.5484 114.028 87.89 114.179 87.1315 114.179C86.4156 114.179 85.7785 114.049 85.2203 113.789C84.662 113.525 84.2231 113.15 83.9035 112.664C83.5839 112.178 83.4241 111.601 83.4241 110.932H84.9838C84.9838 111.303 85.0754 111.626 85.2586 111.903C85.4461 112.176 85.7018 112.389 86.0257 112.543C86.3495 112.696 86.7181 112.773 87.1315 112.773C87.5874 112.773 87.9752 112.677 88.2948 112.485C88.6144 112.293 88.8573 112.012 89.0235 111.641C89.194 111.266 89.2792 110.808 89.2792 110.267V100.909ZM97.6259 114.23C97.0038 114.23 96.4392 114.113 95.9321 113.879C95.4249 113.64 95.0222 113.297 94.724 112.849C94.4257 112.398 94.2765 111.852 94.2765 111.213C94.2765 110.651 94.3873 110.195 94.6089 109.845C94.8305 109.491 95.1267 109.214 95.4974 109.014C95.8681 108.814 96.2772 108.665 96.7247 108.567C97.1764 108.464 97.6302 108.384 98.0862 108.324C98.6828 108.247 99.1664 108.19 99.5372 108.151C99.9122 108.109 100.185 108.038 100.355 107.94C100.53 107.842 100.617 107.672 100.617 107.429V107.378C100.617 106.747 100.445 106.257 100.1 105.908C99.7588 105.558 99.241 105.384 98.5464 105.384C97.8262 105.384 97.2616 105.541 96.8525 105.857C96.4434 106.172 96.1558 106.509 95.9896 106.866L94.5578 106.355C94.8134 105.759 95.1544 105.294 95.5805 104.962C96.0109 104.625 96.4796 104.391 96.9867 104.259C97.4981 104.122 98.0009 104.054 98.4953 104.054C98.8106 104.054 99.1728 104.092 99.5819 104.169C99.9953 104.241 100.394 104.393 100.777 104.623C101.165 104.853 101.487 105.2 101.742 105.665C101.998 106.129 102.126 106.751 102.126 107.531V114H100.617V112.67H100.541C100.438 112.884 100.268 113.112 100.029 113.354C99.7907 113.597 99.4732 113.804 99.0769 113.974C98.6806 114.145 98.197 114.23 97.6259 114.23ZM97.8561 112.875C98.4526 112.875 98.9555 112.758 99.3646 112.523C99.7779 112.289 100.089 111.987 100.298 111.616C100.511 111.245 100.617 110.855 100.617 110.446V109.065C100.553 109.142 100.413 109.212 100.196 109.276C99.9825 109.336 99.7353 109.389 99.4541 109.436C99.1771 109.479 98.9065 109.517 98.6423 109.551C98.3823 109.581 98.1714 109.607 98.0095 109.628C97.6174 109.679 97.2509 109.762 96.91 109.877C96.5734 109.988 96.3007 110.156 96.0919 110.382C95.8873 110.604 95.785 110.906 95.785 111.29C95.785 111.814 95.9789 112.21 96.3667 112.479C96.7588 112.743 97.2552 112.875 97.8561 112.875ZM108.004 114L105.012 104.182H106.597L108.72 111.699H108.822L110.919 104.182H112.529L114.6 111.673H114.703L116.825 104.182H118.41L115.419 114H113.936L111.788 106.457H111.634L109.487 114H108.004ZM124.194 114.23C123.571 114.23 123.007 114.113 122.5 113.879C121.993 113.64 121.59 113.297 121.292 112.849C120.993 112.398 120.844 111.852 120.844 111.213C120.844 110.651 120.955 110.195 121.176 109.845C121.398 109.491 121.694 109.214 122.065 109.014C122.436 108.814 122.845 108.665 123.292 108.567C123.744 108.464 124.198 108.384 124.654 108.324C125.25 108.247 125.734 108.19 126.105 108.151C126.48 108.109 126.752 108.038 126.923 107.94C127.098 107.842 127.185 107.672 127.185 107.429V107.378C127.185 106.747 127.012 106.257 126.667 105.908C126.326 105.558 125.809 105.384 125.114 105.384C124.394 105.384 123.829 105.541 123.42 105.857C123.011 106.172 122.723 106.509 122.557 106.866L121.125 106.355C121.381 105.759 121.722 105.294 122.148 104.962C122.578 104.625 123.047 104.391 123.554 104.259C124.066 104.122 124.569 104.054 125.063 104.054C125.378 104.054 125.74 104.092 126.149 104.169C126.563 104.241 126.961 104.393 127.345 104.623C127.733 104.853 128.054 105.2 128.31 105.665C128.566 106.129 128.694 106.751 128.694 107.531V114H127.185V112.67H127.108C127.006 112.884 126.836 113.112 126.597 113.354C126.358 113.597 126.041 113.804 125.645 113.974C125.248 114.145 124.765 114.23 124.194 114.23ZM124.424 112.875C125.02 112.875 125.523 112.758 125.932 112.523C126.346 112.289 126.657 111.987 126.865 111.616C127.078 111.245 127.185 110.855 127.185 110.446V109.065C127.121 109.142 126.98 109.212 126.763 109.276C126.55 109.336 126.303 109.389 126.022 109.436C125.745 109.479 125.474 109.517 125.21 109.551C124.95 109.581 124.739 109.607 124.577 109.628C124.185 109.679 123.819 109.762 123.478 109.877C123.141 109.988 122.868 110.156 122.659 110.382C122.455 110.604 122.353 110.906 122.353 111.29C122.353 111.814 122.547 112.21 122.934 112.479C123.326 112.743 123.823 112.875 124.424 112.875Z" fill="white"/>
<path d="M7.24601 137.909H8.83123V147.267C8.83123 148.102 8.67782 148.812 8.37101 149.396C8.06419 149.979 7.63166 150.423 7.07342 150.725C6.51518 151.028 5.8568 151.179 5.09828 151.179C4.38237 151.179 3.74529 151.049 3.18706 150.789C2.62882 150.525 2.1899 150.15 1.87029 149.664C1.55069 149.178 1.39089 148.601 1.39089 147.932H2.95055C2.95055 148.303 3.04217 148.626 3.22541 148.903C3.41291 149.176 3.66859 149.389 3.99245 149.543C4.31632 149.696 4.68493 149.773 5.09828 149.773C5.55424 149.773 5.94203 149.677 6.26163 149.485C6.58123 149.293 6.82413 149.012 6.99032 148.641C7.16078 148.266 7.24601 147.808 7.24601 147.267V137.909ZM16.82 151.205C15.874 151.205 15.0579 150.996 14.3719 150.578C13.69 150.156 13.1638 149.568 12.793 148.814C12.4265 148.055 12.2433 147.173 12.2433 146.168C12.2433 145.162 12.4265 144.276 12.793 143.509C13.1638 142.737 13.6794 142.136 14.3399 141.706C15.0047 141.271 15.7802 141.054 16.6666 141.054C17.178 141.054 17.6829 141.139 18.1815 141.31C18.6801 141.48 19.1339 141.757 19.543 142.141C19.9521 142.52 20.2781 143.023 20.521 143.649C20.7639 144.276 20.8854 145.047 20.8854 145.963V146.602H13.3172V145.298H19.3513C19.3513 144.744 19.2405 144.25 19.0189 143.815C18.8015 143.381 18.4905 143.038 18.0856 142.786C17.6851 142.535 17.2121 142.409 16.6666 142.409C16.0657 142.409 15.5459 142.558 15.1069 142.857C14.6723 143.151 14.3378 143.534 14.1034 144.007C13.869 144.48 13.7518 144.987 13.7518 145.528V146.398C13.7518 147.139 13.8797 147.768 14.1354 148.283C14.3953 148.795 14.7554 149.185 15.2156 149.453C15.6758 149.717 16.2106 149.849 16.82 149.849C17.2163 149.849 17.5743 149.794 17.8939 149.683C18.2177 149.568 18.4969 149.398 18.7312 149.172C18.9656 148.942 19.1467 148.656 19.2746 148.315L20.7319 148.724C20.5785 149.219 20.3207 149.653 19.9585 150.028C19.5963 150.399 19.1488 150.689 18.6162 150.898C18.0835 151.102 17.4848 151.205 16.82 151.205ZM24.0801 154.682V141.182H25.5375V142.741H25.7165C25.8273 142.571 25.9807 142.354 26.1767 142.089C26.377 141.821 26.6625 141.582 27.0332 141.374C27.4082 141.161 27.9153 141.054 28.5545 141.054C29.3812 141.054 30.1099 141.261 30.7406 141.674C31.3713 142.087 31.8635 142.673 32.2172 143.432C32.5709 144.19 32.7477 145.085 32.7477 146.116C32.7477 147.156 32.5709 148.058 32.2172 148.82C31.8635 149.579 31.3734 150.167 30.747 150.585C30.1206 150.998 29.3983 151.205 28.5801 151.205C27.9494 151.205 27.4444 151.1 27.0652 150.891C26.6859 150.678 26.394 150.437 26.1895 150.169C25.9849 149.896 25.8273 149.67 25.7165 149.491H25.5886V154.682H24.0801ZM25.563 146.091C25.563 146.832 25.6717 147.487 25.889 148.053C26.1064 148.616 26.4238 149.057 26.8415 149.376C27.2591 149.692 27.7704 149.849 28.3755 149.849C29.0062 149.849 29.5325 149.683 29.9544 149.351C30.3805 149.014 30.7001 148.562 30.9132 147.996C31.1305 147.425 31.2392 146.79 31.2392 146.091C31.2392 145.401 31.1327 144.778 30.9196 144.224C30.7108 143.666 30.3933 143.225 29.9672 142.901C29.5453 142.573 29.0148 142.409 28.3755 142.409C27.7619 142.409 27.2463 142.565 26.8287 142.876C26.4111 143.183 26.0957 143.613 25.8827 144.167C25.6696 144.717 25.563 145.358 25.563 146.091ZM38.8381 151.23C38.2159 151.23 37.6513 151.113 37.1442 150.879C36.6371 150.64 36.2344 150.297 35.9361 149.849C35.6378 149.398 35.4886 148.852 35.4886 148.213C35.4886 147.651 35.5994 147.195 35.821 146.845C36.0426 146.491 36.3388 146.214 36.7095 146.014C37.0802 145.814 37.4893 145.665 37.9368 145.567C38.3885 145.464 38.8423 145.384 39.2983 145.324C39.8949 145.247 40.3785 145.19 40.7493 145.151C41.1243 145.109 41.397 145.038 41.5675 144.94C41.7422 144.842 41.8295 144.672 41.8295 144.429V144.378C41.8295 143.747 41.6569 143.257 41.3118 142.908C40.9709 142.558 40.4531 142.384 39.7585 142.384C39.0383 142.384 38.4737 142.541 38.0646 142.857C37.6555 143.172 37.3679 143.509 37.2017 143.866L35.7699 143.355C36.0256 142.759 36.3665 142.294 36.7926 141.962C37.223 141.625 37.6917 141.391 38.1988 141.259C38.7102 141.122 39.2131 141.054 39.7074 141.054C40.0227 141.054 40.3849 141.092 40.794 141.169C41.2074 141.241 41.6058 141.393 41.9893 141.623C42.3771 141.853 42.6988 142.2 42.9545 142.665C43.2102 143.129 43.3381 143.751 43.3381 144.531V151H41.8295V149.67H41.7528C41.6506 149.884 41.4801 150.112 41.2415 150.354C41.0028 150.597 40.6854 150.804 40.289 150.974C39.8927 151.145 39.4091 151.23 38.8381 151.23ZM39.0682 149.875C39.6648 149.875 40.1676 149.758 40.5767 149.523C40.99 149.289 41.3011 148.987 41.5099 148.616C41.723 148.245 41.8295 147.855 41.8295 147.446V146.065C41.7656 146.142 41.625 146.212 41.4077 146.276C41.1946 146.336 40.9474 146.389 40.6662 146.436C40.3892 146.479 40.1186 146.517 39.8544 146.551C39.5944 146.581 39.3835 146.607 39.2216 146.628C38.8295 146.679 38.4631 146.762 38.1221 146.877C37.7855 146.988 37.5128 147.156 37.304 147.382C37.0994 147.604 36.9971 147.906 36.9971 148.29C36.9971 148.814 37.191 149.21 37.5788 149.479C37.9709 149.743 38.4673 149.875 39.0682 149.875ZM46.9914 151V141.182H48.4488V142.665H48.5511C48.7301 142.179 49.0539 141.785 49.5227 141.482C49.9914 141.18 50.5198 141.028 51.1079 141.028C51.2187 141.028 51.3572 141.031 51.5234 141.035C51.6896 141.039 51.8153 141.045 51.9005 141.054V142.588C51.8494 142.575 51.7322 142.556 51.549 142.531C51.37 142.501 51.1803 142.486 50.9801 142.486C50.5028 142.486 50.0767 142.586 49.7016 142.786C49.3309 142.982 49.0369 143.255 48.8195 143.604C48.6065 143.95 48.4999 144.344 48.4999 144.787V151H46.9914ZM57.4779 151.23C56.8557 151.23 56.2911 151.113 55.784 150.879C55.2769 150.64 54.8742 150.297 54.5759 149.849C54.2776 149.398 54.1285 148.852 54.1285 148.213C54.1285 147.651 54.2393 147.195 54.4608 146.845C54.6824 146.491 54.9786 146.214 55.3493 146.014C55.7201 145.814 56.1292 145.665 56.5766 145.567C57.0283 145.464 57.4822 145.384 57.9381 145.324C58.5347 145.247 59.0184 145.19 59.3891 145.151C59.7641 145.109 60.0368 145.038 60.2073 144.94C60.382 144.842 60.4694 144.672 60.4694 144.429V144.378C60.4694 143.747 60.2968 143.257 59.9516 142.908C59.6107 142.558 59.093 142.384 58.3983 142.384C57.6782 142.384 57.1135 142.541 56.7045 142.857C56.2954 143.172 56.0077 143.509 55.8415 143.866L54.4097 143.355C54.6654 142.759 55.0063 142.294 55.4324 141.962C55.8628 141.625 56.3316 141.391 56.8387 141.259C57.3501 141.122 57.8529 141.054 58.3472 141.054C58.6626 141.054 59.0248 141.092 59.4339 141.169C59.8472 141.241 60.2457 141.393 60.6292 141.623C61.017 141.853 61.3387 142.2 61.5944 142.665C61.8501 143.129 61.9779 143.751 61.9779 144.531V151H60.4694V149.67H60.3927C60.2904 149.884 60.1199 150.112 59.8813 150.354C59.6427 150.597 59.3252 150.804 58.9289 150.974C58.5326 151.145 58.0489 151.23 57.4779 151.23ZM57.708 149.875C58.3046 149.875 58.8074 149.758 59.2165 149.523C59.6299 149.289 59.941 148.987 60.1498 148.616C60.3628 148.245 60.4694 147.855 60.4694 147.446V146.065C60.4055 146.142 60.2648 146.212 60.0475 146.276C59.8344 146.336 59.5873 146.389 59.306 146.436C59.029 146.479 58.7584 146.517 58.4942 146.551C58.2343 146.581 58.0233 146.607 57.8614 146.628C57.4694 146.679 57.1029 146.762 56.762 146.877C56.4253 146.988 56.1526 147.156 55.9438 147.382C55.7393 147.604 55.637 147.906 55.637 148.29C55.637 148.814 55.8309 149.21 56.2187 149.479C56.6107 149.743 57.1072 149.875 57.708 149.875Z" fill="white"/>
<path d="M2.22488 188V174.909H3.8101V186.594H9.89533V188H2.22488ZM17.034 188.205C16.1476 188.205 15.3699 187.994 14.7009 187.572C14.0361 187.15 13.5162 186.56 13.1412 185.801C12.7705 185.043 12.5851 184.156 12.5851 183.142C12.5851 182.119 12.7705 181.227 13.1412 180.464C13.5162 179.701 14.0361 179.109 14.7009 178.687C15.3699 178.265 16.1476 178.054 17.034 178.054C17.9203 178.054 18.6959 178.265 19.3607 178.687C20.0297 179.109 20.5496 179.701 20.9203 180.464C21.2953 181.227 21.4828 182.119 21.4828 183.142C21.4828 184.156 21.2953 185.043 20.9203 185.801C20.5496 186.56 20.0297 187.15 19.3607 187.572C18.6959 187.994 17.9203 188.205 17.034 188.205ZM17.034 186.849C17.7073 186.849 18.2612 186.677 18.6959 186.332C19.1306 185.987 19.4523 185.533 19.6611 184.97C19.8699 184.408 19.9743 183.798 19.9743 183.142C19.9743 182.486 19.8699 181.874 19.6611 181.308C19.4523 180.741 19.1306 180.283 18.6959 179.933C18.2612 179.584 17.7073 179.409 17.034 179.409C16.3607 179.409 15.8067 179.584 15.372 179.933C14.9374 180.283 14.6156 180.741 14.4068 181.308C14.198 181.874 14.0936 182.486 14.0936 183.142C14.0936 183.798 14.198 184.408 14.4068 184.97C14.6156 185.533 14.9374 185.987 15.372 186.332C15.8067 186.677 16.3607 186.849 17.034 186.849ZM24.6856 188V178.182H26.143V179.716H26.2708C26.4753 179.192 26.8056 178.785 27.2616 178.495C27.7175 178.201 28.2651 178.054 28.9043 178.054C29.552 178.054 30.0911 178.201 30.5215 178.495C30.9562 178.785 31.2949 179.192 31.5378 179.716H31.6401C31.8915 179.209 32.2687 178.806 32.7715 178.508C33.2743 178.205 33.8773 178.054 34.5805 178.054C35.4583 178.054 36.1763 178.329 36.7346 178.879C37.2928 179.424 37.5719 180.274 37.5719 181.429V188H36.0634V181.429C36.0634 180.705 35.8653 180.187 35.4689 179.876C35.0726 179.565 34.606 179.409 34.0691 179.409C33.3787 179.409 32.8439 179.618 32.4647 180.036C32.0854 180.449 31.8958 180.973 31.8958 181.608V188H30.3617V181.276C30.3617 180.717 30.1806 180.268 29.8184 179.927C29.4562 179.582 28.9895 179.409 28.4185 179.409C28.0265 179.409 27.66 179.513 27.3191 179.722C26.9824 179.931 26.7097 180.221 26.5009 180.592C26.2964 180.958 26.1941 181.382 26.1941 181.864V188H24.6856ZM41.4346 188V174.909H42.9432V179.741H43.071C43.1818 179.571 43.3352 179.354 43.5312 179.089C43.7315 178.821 44.017 178.582 44.3878 178.374C44.7628 178.161 45.2699 178.054 45.9091 178.054C46.7358 178.054 47.4645 178.261 48.0952 178.674C48.7258 179.087 49.218 179.673 49.5717 180.432C49.9254 181.19 50.1023 182.085 50.1023 183.116C50.1023 184.156 49.9254 185.058 49.5717 185.82C49.218 186.579 48.728 187.167 48.1015 187.585C47.4751 187.998 46.7528 188.205 45.9346 188.205C45.304 188.205 44.799 188.1 44.4197 187.891C44.0405 187.678 43.7486 187.437 43.544 187.169C43.3395 186.896 43.1818 186.67 43.071 186.491H42.892V188H41.4346ZM42.9176 183.091C42.9176 183.832 43.0263 184.487 43.2436 185.053C43.4609 185.616 43.7784 186.057 44.196 186.376C44.6136 186.692 45.125 186.849 45.7301 186.849C46.3608 186.849 46.8871 186.683 47.3089 186.351C47.7351 186.014 48.0547 185.562 48.2677 184.996C48.4851 184.425 48.5937 183.79 48.5937 183.091C48.5937 182.401 48.4872 181.778 48.2741 181.224C48.0653 180.666 47.7479 180.225 47.3217 179.901C46.8998 179.573 46.3693 179.409 45.7301 179.409C45.1165 179.409 44.6008 179.565 44.1832 179.876C43.7656 180.183 43.4503 180.613 43.2372 181.167C43.0241 181.717 42.9176 182.358 42.9176 183.091ZM57.2984 188.205C56.4121 188.205 55.6344 187.994 54.9653 187.572C54.3005 187.15 53.7807 186.56 53.4057 185.801C53.0349 185.043 52.8496 184.156 52.8496 183.142C52.8496 182.119 53.0349 181.227 53.4057 180.464C53.7807 179.701 54.3005 179.109 54.9653 178.687C55.6344 178.265 56.4121 178.054 57.2984 178.054C58.1848 178.054 58.9604 178.265 59.6251 178.687C60.2942 179.109 60.814 179.701 61.1848 180.464C61.5598 181.227 61.7473 182.119 61.7473 183.142C61.7473 184.156 61.5598 185.043 61.1848 185.801C60.814 186.56 60.2942 187.15 59.6251 187.572C58.9604 187.994 58.1848 188.205 57.2984 188.205ZM57.2984 186.849C57.9717 186.849 58.5257 186.677 58.9604 186.332C59.395 185.987 59.7167 185.533 59.9255 184.97C60.1344 184.408 60.2388 183.798 60.2388 183.142C60.2388 182.486 60.1344 181.874 59.9255 181.308C59.7167 180.741 59.395 180.283 58.9604 179.933C58.5257 179.584 57.9717 179.409 57.2984 179.409C56.6251 179.409 56.0711 179.584 55.6365 179.933C55.2018 180.283 54.8801 180.741 54.6713 181.308C54.4625 181.874 54.3581 182.486 54.3581 183.142C54.3581 183.798 54.4625 184.408 54.6713 184.97C54.8801 185.533 55.2018 185.987 55.6365 186.332C56.0711 186.677 56.6251 186.849 57.2984 186.849ZM66.3563 184.42L66.3307 182.554H66.6375L70.933 178.182H72.7995L68.2227 182.81H68.0949L66.3563 184.42ZM64.95 188V174.909H66.4585V188H64.95ZM71.1887 188L67.3534 183.142L68.4273 182.094L73.1063 188H71.1887Z" fill="white"/>
<path d="M1.36921 211.909H3.18455L6.81524 218.02H6.96864L10.5993 211.909H12.4147L7.68455 219.605V225H6.09933V219.605L1.36921 211.909ZM17.7603 225.205C16.874 225.205 16.0963 224.994 15.4272 224.572C14.7625 224.15 14.2426 223.56 13.8676 222.801C13.4968 222.043 13.3115 221.156 13.3115 220.142C13.3115 219.119 13.4968 218.227 13.8676 217.464C14.2426 216.701 14.7625 216.109 15.4272 215.687C16.0963 215.265 16.874 215.054 17.7603 215.054C18.6467 215.054 19.4223 215.265 20.087 215.687C20.7561 216.109 21.276 216.701 21.6467 217.464C22.0217 218.227 22.2092 219.119 22.2092 220.142C22.2092 221.156 22.0217 222.043 21.6467 222.801C21.276 223.56 20.7561 224.15 20.087 224.572C19.4223 224.994 18.6467 225.205 17.7603 225.205ZM17.7603 223.849C18.4336 223.849 18.9876 223.677 19.4223 223.332C19.8569 222.987 20.1787 222.533 20.3875 221.97C20.5963 221.408 20.7007 220.798 20.7007 220.142C20.7007 219.486 20.5963 218.874 20.3875 218.308C20.1787 217.741 19.8569 217.283 19.4223 216.933C18.9876 216.584 18.4336 216.409 17.7603 216.409C17.087 216.409 16.5331 216.584 16.0984 216.933C15.6637 217.283 15.342 217.741 15.1332 218.308C14.9244 218.874 14.82 219.486 14.82 220.142C14.82 220.798 14.9244 221.408 15.1332 221.97C15.342 222.533 15.6637 222.987 16.0984 223.332C16.5331 223.677 17.087 223.849 17.7603 223.849ZM29.375 228.886C28.6463 228.886 28.0199 228.793 27.4957 228.605C26.9716 228.422 26.5348 228.179 26.1854 227.876C25.8402 227.578 25.5653 227.259 25.3608 226.918L26.5625 226.074C26.6989 226.253 26.8714 226.457 27.0803 226.688C27.2891 226.922 27.5746 227.124 27.9368 227.295C28.3033 227.469 28.7827 227.557 29.375 227.557C30.1676 227.557 30.8217 227.365 31.3374 226.982C31.853 226.598 32.1108 225.997 32.1108 225.179V223.185H31.983C31.8722 223.364 31.7145 223.585 31.5099 223.849C31.3097 224.109 31.0199 224.342 30.6406 224.546C30.2656 224.746 29.7585 224.847 29.1193 224.847C28.3267 224.847 27.6151 224.659 26.9844 224.284C26.358 223.909 25.8615 223.364 25.495 222.648C25.1328 221.932 24.9517 221.062 24.9517 220.04C24.9517 219.034 25.1286 218.158 25.4822 217.413C25.8359 216.663 26.3281 216.083 26.9588 215.674C27.5895 215.261 28.3182 215.054 29.1449 215.054C29.7841 215.054 30.2912 215.161 30.6662 215.374C31.0455 215.582 31.3352 215.821 31.5355 216.089C31.7401 216.354 31.8977 216.571 32.0085 216.741H32.1619V215.182H33.6193V225.281C33.6193 226.125 33.4276 226.811 33.044 227.339C32.6648 227.872 32.1534 228.262 31.5099 228.509C30.8707 228.761 30.1591 228.886 29.375 228.886ZM29.3239 223.491C29.929 223.491 30.4403 223.353 30.858 223.076C31.2756 222.799 31.593 222.401 31.8104 221.881C32.0277 221.361 32.1364 220.739 32.1364 220.014C32.1364 219.307 32.0298 218.683 31.8168 218.141C31.6037 217.6 31.2884 217.176 30.8707 216.869C30.4531 216.562 29.9375 216.409 29.3239 216.409C28.6847 216.409 28.152 216.571 27.7259 216.895C27.304 217.219 26.9865 217.653 26.7734 218.199C26.5646 218.744 26.4602 219.349 26.4602 220.014C26.4602 220.696 26.5668 221.299 26.7798 221.823C26.9972 222.343 27.3168 222.752 27.7386 223.05C28.1648 223.344 28.6932 223.491 29.3239 223.491ZM38.2523 228.682C37.9966 228.682 37.7686 228.661 37.5683 228.618C37.368 228.58 37.2295 228.541 37.1528 228.503L37.5364 227.173C37.9028 227.267 38.2267 227.301 38.508 227.276C38.7892 227.25 39.0385 227.124 39.2558 226.898C39.4774 226.677 39.6798 226.317 39.8631 225.818L40.1443 225.051L36.5136 215.182H38.15L40.8602 223.006H40.9625L43.6727 215.182H45.3091L41.1415 226.432C40.954 226.939 40.7217 227.359 40.4447 227.691C40.1678 228.028 39.846 228.277 39.4795 228.439C39.1173 228.601 38.7082 228.682 38.2523 228.682ZM50.7906 225.23C50.1684 225.23 49.6038 225.113 49.0967 224.879C48.5896 224.64 48.1869 224.297 47.8886 223.849C47.5903 223.398 47.4412 222.852 47.4412 222.213C47.4412 221.651 47.552 221.195 47.7735 220.845C47.9951 220.491 48.2913 220.214 48.662 220.014C49.0328 219.814 49.4419 219.665 49.8893 219.567C50.341 219.464 50.7949 219.384 51.2508 219.324C51.8474 219.247 52.3311 219.19 52.7018 219.151C53.0768 219.109 53.3495 219.038 53.52 218.94C53.6947 218.842 53.7821 218.672 53.7821 218.429V218.378C53.7821 217.747 53.6095 217.257 53.2643 216.908C52.9234 216.558 52.4056 216.384 51.711 216.384C50.9909 216.384 50.4262 216.541 50.0172 216.857C49.6081 217.172 49.3204 217.509 49.1542 217.866L47.7224 217.355C47.9781 216.759 48.319 216.294 48.7451 215.962C49.1755 215.625 49.6443 215.391 50.1514 215.259C50.6627 215.122 51.1656 215.054 51.6599 215.054C51.9752 215.054 52.3375 215.092 52.7466 215.169C53.1599 215.241 53.5583 215.393 53.9419 215.623C54.3297 215.853 54.6514 216.2 54.9071 216.665C55.1627 217.129 55.2906 217.751 55.2906 218.531V225H53.7821V223.67H53.7054C53.6031 223.884 53.4326 224.112 53.194 224.354C52.9554 224.597 52.6379 224.804 52.2416 224.974C51.8453 225.145 51.3616 225.23 50.7906 225.23ZM51.0207 223.875C51.6173 223.875 52.1201 223.758 52.5292 223.523C52.9426 223.289 53.2537 222.987 53.4625 222.616C53.6755 222.245 53.7821 221.855 53.7821 221.446V220.065C53.7181 220.142 53.5775 220.212 53.3602 220.276C53.1471 220.336 52.9 220.389 52.6187 220.436C52.3417 220.479 52.0711 220.517 51.8069 220.551C51.547 220.581 51.336 220.607 51.1741 220.628C50.7821 220.679 50.4156 220.762 50.0747 220.877C49.738 220.988 49.4653 221.156 49.2565 221.382C49.052 221.604 48.9497 221.906 48.9497 222.29C48.9497 222.814 49.1436 223.21 49.5314 223.479C49.9234 223.743 50.4199 223.875 51.0207 223.875ZM60.3502 221.42L60.3246 219.554H60.6315L64.9269 215.182H66.7934L62.2167 219.81H62.0889L60.3502 221.42ZM58.944 225V211.909H60.4525V225H58.944ZM65.1826 225L61.3474 220.142L62.4212 219.094L67.1002 225H65.1826ZM72.5242 225.23C71.902 225.23 71.3374 225.113 70.8303 224.879C70.3232 224.64 69.9205 224.297 69.6222 223.849C69.3239 223.398 69.1748 222.852 69.1748 222.213C69.1748 221.651 69.2856 221.195 69.5071 220.845C69.7287 220.491 70.0249 220.214 70.3956 220.014C70.7664 219.814 71.1755 219.665 71.6229 219.567C72.0746 219.464 72.5285 219.384 72.9844 219.324C73.581 219.247 74.0647 219.19 74.4354 219.151C74.8104 219.109 75.0831 219.038 75.2536 218.94C75.4283 218.842 75.5157 218.672 75.5157 218.429V218.378C75.5157 217.747 75.3431 217.257 74.9979 216.908C74.657 216.558 74.1392 216.384 73.4446 216.384C72.7245 216.384 72.1598 216.541 71.7508 216.857C71.3417 217.172 71.054 217.509 70.8878 217.866L69.456 217.355C69.7117 216.759 70.0526 216.294 70.4787 215.962C70.9091 215.625 71.3779 215.391 71.885 215.259C72.3963 215.122 72.8992 215.054 73.3935 215.054C73.7088 215.054 74.0711 215.092 74.4802 215.169C74.8935 215.241 75.2919 215.393 75.6755 215.623C76.0633 215.853 76.385 216.2 76.6407 216.665C76.8963 217.129 77.0242 217.751 77.0242 218.531V225H75.5157V223.67H75.439C75.3367 223.884 75.1662 224.112 74.9276 224.354C74.689 224.597 74.3715 224.804 73.9752 224.974C73.5789 225.145 73.0952 225.23 72.5242 225.23ZM72.7543 223.875C73.3509 223.875 73.8537 223.758 74.2628 223.523C74.6762 223.289 74.9873 222.987 75.1961 222.616C75.4091 222.245 75.5157 221.855 75.5157 221.446V220.065C75.4517 220.142 75.3111 220.212 75.0938 220.276C74.8807 220.336 74.6336 220.389 74.3523 220.436C74.0753 220.479 73.8047 220.517 73.5405 220.551C73.2806 220.581 73.0696 220.607 72.9077 220.628C72.5157 220.679 72.1492 220.762 71.8083 220.877C71.4716 220.988 71.1989 221.156 70.9901 221.382C70.7856 221.604 70.6833 221.906 70.6833 222.29C70.6833 222.814 70.8772 223.21 71.265 223.479C71.657 223.743 72.1535 223.875 72.7543 223.875ZM80.6776 225V215.182H82.1349V216.665H82.2372C82.4162 216.179 82.7401 215.785 83.2088 215.482C83.6776 215.18 84.206 215.028 84.794 215.028C84.9048 215.028 85.0433 215.031 85.2095 215.035C85.3757 215.039 85.5014 215.045 85.5866 215.054V216.588C85.5355 216.575 85.4183 216.556 85.2351 216.531C85.0561 216.501 84.8665 216.486 84.6662 216.486C84.1889 216.486 83.7628 216.586 83.3878 216.786C83.017 216.982 82.723 217.255 82.5057 217.604C82.2926 217.95 82.1861 218.344 82.1861 218.787V225H80.6776ZM93.1599 215.182V216.46H88.0719V215.182H93.1599ZM89.5548 212.83H91.0633V222.188C91.0633 222.614 91.1251 222.933 91.2487 223.146C91.3766 223.355 91.5385 223.496 91.7345 223.568C91.9348 223.636 92.1457 223.67 92.3673 223.67C92.5335 223.67 92.6699 223.662 92.7764 223.645C92.8829 223.624 92.9682 223.607 93.0321 223.594L93.3389 224.949C93.2366 224.987 93.0939 225.026 92.9106 225.064C92.7274 225.107 92.4952 225.128 92.2139 225.128C91.7878 225.128 91.3702 225.036 90.9611 224.853C90.5562 224.67 90.2196 224.391 89.9511 224.016C89.6869 223.641 89.5548 223.168 89.5548 222.597V212.83ZM99.2183 225.23C98.5962 225.23 98.0315 225.113 97.5244 224.879C97.0173 224.64 96.6146 224.297 96.3163 223.849C96.018 223.398 95.8689 222.852 95.8689 222.213C95.8689 221.651 95.9797 221.195 96.2013 220.845C96.4229 220.491 96.719 220.214 97.0898 220.014C97.4605 219.814 97.8696 219.665 98.317 219.567C98.7688 219.464 99.2226 219.384 99.6786 219.324C100.275 219.247 100.759 219.19 101.13 219.151C101.505 219.109 101.777 219.038 101.948 218.94C102.122 218.842 102.21 218.672 102.21 218.429V218.378C102.21 217.747 102.037 217.257 101.692 216.908C101.351 216.558 100.833 216.384 100.139 216.384C99.4186 216.384 98.854 216.541 98.4449 216.857C98.0358 217.172 97.7482 217.509 97.582 217.866L96.1501 217.355C96.4058 216.759 96.7467 216.294 97.1729 215.962C97.6033 215.625 98.072 215.391 98.5791 215.259C99.0905 215.122 99.5933 215.054 100.088 215.054C100.403 215.054 100.765 215.092 101.174 215.169C101.588 215.241 101.986 215.393 102.37 215.623C102.757 215.853 103.079 216.2 103.335 216.665C103.59 217.129 103.718 217.751 103.718 218.531V225H102.21V223.67H102.133C102.031 223.884 101.86 224.112 101.622 224.354C101.383 224.597 101.066 224.804 100.669 224.974C100.273 225.145 99.7893 225.23 99.2183 225.23ZM99.4484 223.875C100.045 223.875 100.548 223.758 100.957 223.523C101.37 223.289 101.681 222.987 101.89 222.616C102.103 222.245 102.21 221.855 102.21 221.446V220.065C102.146 220.142 102.005 220.212 101.788 220.276C101.575 220.336 101.328 220.389 101.046 220.436C100.769 220.479 100.499 220.517 100.235 220.551C99.9747 220.581 99.7638 220.607 99.6019 220.628C99.2098 220.679 98.8433 220.762 98.5024 220.877C98.1658 220.988 97.893 221.156 97.6842 221.382C97.4797 221.604 97.3774 221.906 97.3774 222.29C97.3774 222.814 97.5713 223.21 97.9591 223.479C98.3511 223.743 98.8476 223.875 99.4484 223.875Z" fill="white"/>
<path d="M2.40749 262V248.909H10.2569V250.315H3.99272V254.739H9.66886V256.145H3.99272V262H2.40749ZM15.1759 248.909V262H13.6674V248.909H15.1759ZM22.8275 262.205C21.9412 262.205 21.1635 261.994 20.4944 261.572C19.8297 261.15 19.3098 260.56 18.9348 259.801C18.564 259.043 18.3787 258.156 18.3787 257.142C18.3787 256.119 18.564 255.227 18.9348 254.464C19.3098 253.701 19.8297 253.109 20.4944 252.687C21.1635 252.265 21.9412 252.054 22.8275 252.054C23.7139 252.054 24.4895 252.265 25.1542 252.687C25.8233 253.109 26.3431 253.701 26.7139 254.464C27.0889 255.227 27.2764 256.119 27.2764 257.142C27.2764 258.156 27.0889 259.043 26.7139 259.801C26.3431 260.56 25.8233 261.15 25.1542 261.572C24.4895 261.994 23.7139 262.205 22.8275 262.205ZM22.8275 260.849C23.5008 260.849 24.0548 260.677 24.4895 260.332C24.9241 259.987 25.2458 259.533 25.4547 258.97C25.6635 258.408 25.7679 257.798 25.7679 257.142C25.7679 256.486 25.6635 255.874 25.4547 255.308C25.2458 254.741 24.9241 254.283 24.4895 253.933C24.0548 253.584 23.5008 253.409 22.8275 253.409C22.1542 253.409 21.6002 253.584 21.1656 253.933C20.7309 254.283 20.4092 254.741 20.2004 255.308C19.9916 255.874 19.8872 256.486 19.8872 257.142C19.8872 257.798 19.9916 258.408 20.2004 258.97C20.4092 259.533 20.7309 259.987 21.1656 260.332C21.6002 260.677 22.1542 260.849 22.8275 260.849ZM30.4791 262V252.182H31.9365V253.665H32.0388C32.2178 253.179 32.5416 252.785 33.0104 252.482C33.4791 252.18 34.0075 252.028 34.5956 252.028C34.7064 252.028 34.8449 252.031 35.0111 252.035C35.1773 252.039 35.303 252.045 35.3882 252.054V253.588C35.3371 253.575 35.2199 253.556 35.0366 253.531C34.8577 253.501 34.668 253.486 34.4678 253.486C33.9905 253.486 33.5643 253.586 33.1893 253.786C32.8186 253.982 32.5246 254.255 32.3072 254.604C32.0942 254.95 31.9876 255.344 31.9876 255.787V262H30.4791ZM41.894 262.205C40.948 262.205 40.132 261.996 39.4459 261.578C38.7641 261.156 38.2378 260.568 37.867 259.814C37.5006 259.055 37.3173 258.173 37.3173 257.168C37.3173 256.162 37.5006 255.276 37.867 254.509C38.2378 253.737 38.7534 253.136 39.4139 252.706C40.0787 252.271 40.8543 252.054 41.7406 252.054C42.252 252.054 42.757 252.139 43.2555 252.31C43.7541 252.48 44.208 252.757 44.617 253.141C45.0261 253.52 45.3521 254.023 45.595 254.649C45.8379 255.276 45.9594 256.047 45.9594 256.963V257.602H38.3912V256.298H44.4253C44.4253 255.744 44.3145 255.25 44.0929 254.815C43.8756 254.381 43.5645 254.038 43.1597 253.786C42.7591 253.535 42.2861 253.409 41.7406 253.409C41.1398 253.409 40.6199 253.558 40.181 253.857C39.7463 254.151 39.4118 254.534 39.1774 255.007C38.943 255.48 38.8259 255.987 38.8259 256.528V257.398C38.8259 258.139 38.9537 258.768 39.2094 259.283C39.4693 259.795 39.8294 260.185 40.2896 260.453C40.7499 260.717 41.2847 260.849 41.894 260.849C42.2903 260.849 42.6483 260.794 42.9679 260.683C43.2918 260.568 43.5709 260.398 43.8053 260.172C44.0396 259.942 44.2207 259.656 44.3486 259.315L45.806 259.724C45.6526 260.219 45.3947 260.653 45.0325 261.028C44.6703 261.399 44.2229 261.689 43.6902 261.898C43.1575 262.102 42.5588 262.205 41.894 262.205ZM56.1087 254.381L54.7536 254.764C54.6683 254.538 54.5426 254.319 54.3764 254.106C54.2145 253.888 53.9929 253.71 53.7116 253.569C53.4304 253.428 53.0703 253.358 52.6314 253.358C52.0305 253.358 51.5298 253.496 51.1293 253.773C50.733 254.046 50.5348 254.393 50.5348 254.815C50.5348 255.19 50.6712 255.487 50.9439 255.704C51.2166 255.921 51.6428 256.102 52.2223 256.247L53.6797 256.605C54.5575 256.818 55.2116 257.144 55.642 257.583C56.0724 258.018 56.2876 258.578 56.2876 259.264C56.2876 259.827 56.1257 260.33 55.8018 260.773C55.4822 261.216 55.0348 261.565 54.4595 261.821C53.8842 262.077 53.2152 262.205 52.4524 262.205C51.451 262.205 50.6222 261.987 49.9659 261.553C49.3097 261.118 48.8942 260.483 48.7195 259.648L50.1513 259.29C50.2876 259.818 50.5455 260.214 50.9247 260.479C51.3082 260.743 51.8089 260.875 52.4268 260.875C53.13 260.875 53.6882 260.726 54.1016 260.428C54.5192 260.125 54.728 259.763 54.728 259.341C54.728 259 54.6087 258.714 54.37 258.484C54.1314 258.25 53.7649 258.075 53.2706 257.96L51.6342 257.577C50.7351 257.364 50.0746 257.033 49.6527 256.586C49.2351 256.134 49.0263 255.57 49.0263 254.892C49.0263 254.338 49.1818 253.848 49.4929 253.422C49.8082 252.996 50.2365 252.661 50.7777 252.418C51.3232 252.175 51.9411 252.054 52.6314 252.054C53.603 252.054 54.3658 252.267 54.9197 252.693C55.478 253.119 55.8743 253.682 56.1087 254.381Z" fill="white"/>
</svg>
